<svg width="518" height="152" viewBox="0 0 518 152" fill="none" xmlns="http://www.w3.org/2000/svg">
<rect width="152" height="152" rx="40" fill="#2E7D32"/>
<path d="M76 113.5C78.3224 113.503 80.588 112.782 82.4818 111.438C84.3757 110.094 85.8038 108.193 86.5675 106H65.4325C66.1962 108.193 67.6243 110.094 69.5182 111.438C71.412 112.782 73.6776 113.503 76 113.5ZM102.25 85.6975V68.5C102.25 56.4362 94.0563 46.2737 82.9563 43.2175C81.8575 40.45 79.1725 38.5 76 38.5C72.8275 38.5 70.1425 40.45 69.0438 43.2175C57.9438 46.2775 49.75 56.4362 49.75 68.5V85.6975L43.3488 92.0987C42.9998 92.4464 42.7231 92.8596 42.5346 93.3146C42.346 93.7696 42.2493 94.2575 42.25 94.75V98.5C42.25 99.4946 42.6451 100.448 43.3484 101.152C44.0516 101.855 45.0054 102.25 46 102.25H106C106.995 102.25 107.948 101.855 108.652 101.152C109.355 100.448 109.75 99.4946 109.75 98.5V94.75C109.751 94.2575 109.654 93.7696 109.465 93.3146C109.277 92.8596 109 92.4464 108.651 92.0987L102.25 85.6975Z" fill="#F1F8E9"/>
<circle cx="110.5" cy="46.5" r="22.5" fill="#FF4081"/>
<path d="M96.688 58.256C96.176 58.256 95.76 58.1387 95.44 57.904C95.1413 57.6693 94.96 57.36 94.896 56.976C94.832 56.5707 94.9067 56.1227 95.12 55.632L103.568 36.912C103.845 36.2933 104.176 35.856 104.56 35.6C104.965 35.3227 105.424 35.184 105.936 35.184C106.427 35.184 106.864 35.3227 107.248 35.6C107.653 35.856 107.995 36.2933 108.272 36.912L116.752 55.632C116.987 56.1227 117.072 56.5707 117.008 56.976C116.944 57.3813 116.763 57.7013 116.464 57.936C116.165 58.1493 115.771 58.256 115.28 58.256C114.683 58.256 114.213 58.1173 113.872 57.84C113.552 57.5413 113.264 57.0933 113.008 56.496L110.928 51.664L112.656 52.784H99.152L100.88 51.664L98.832 56.496C98.5547 57.1147 98.2667 57.5627 97.968 57.84C97.6693 58.1173 97.2427 58.256 96.688 58.256ZM105.872 39.888L101.392 50.544L100.56 49.52H111.248L110.448 50.544L105.936 39.888H105.872ZM122.325 58.256C121.663 58.256 121.151 58.0747 120.789 57.712C120.447 57.328 120.277 56.8053 120.277 56.144V37.296C120.277 36.6133 120.447 36.0907 120.789 35.728C121.151 35.3653 121.663 35.184 122.325 35.184C122.986 35.184 123.487 35.3653 123.829 35.728C124.191 36.0907 124.373 36.6133 124.373 37.296V56.144C124.373 56.8053 124.202 57.328 123.861 57.712C123.519 58.0747 123.007 58.256 122.325 58.256Z" fill="white"/>
<path d="M191.024 99.512C189.701 99.512 188.677 99.1493 187.952 98.424C187.269 97.656 186.928 96.6107 186.928 95.288V58.04C186.928 56.6747 187.291 55.6507 188.016 54.968C188.741 54.2427 189.765 53.88 191.088 53.88H206.512C211.461 53.88 215.28 55.0747 217.968 57.464C220.656 59.8107 222 63.1173 222 67.384C222 70.1573 221.381 72.5467 220.144 74.552C218.949 76.5573 217.2 78.0933 214.896 79.16C212.592 80.2267 209.797 80.76 206.512 80.76L207.088 79.8H209.2C210.949 79.8 212.464 80.2267 213.744 81.08C215.067 81.9333 216.219 83.2773 217.2 85.112L222 94.008C222.512 94.904 222.747 95.7787 222.704 96.632C222.661 97.4853 222.341 98.1893 221.744 98.744C221.147 99.256 220.272 99.512 219.12 99.512C217.968 99.512 217.029 99.2773 216.304 98.808C215.579 98.296 214.939 97.528 214.384 96.504L207.92 84.6C207.152 83.1493 206.235 82.1893 205.168 81.72C204.144 81.208 202.821 80.952 201.2 80.952H195.12V95.288C195.12 96.6107 194.779 97.656 194.096 98.424C193.413 99.1493 192.389 99.512 191.024 99.512ZM195.12 74.872H205.104C208.048 74.872 210.267 74.2747 211.76 73.08C213.296 71.8427 214.064 70.008 214.064 67.576C214.064 65.1867 213.296 63.3947 211.76 62.2C210.267 60.9627 208.048 60.344 205.104 60.344H195.12V74.872ZM244.647 99.64C241.105 99.64 238.055 98.9787 235.495 97.656C232.935 96.3333 230.951 94.456 229.543 92.024C228.177 89.592 227.495 86.712 227.495 83.384C227.495 80.1413 228.156 77.304 229.479 74.872C230.844 72.44 232.7 70.5413 235.047 69.176C237.436 67.768 240.145 67.064 243.175 67.064C245.393 67.064 247.377 67.4267 249.127 68.152C250.919 68.8773 252.433 69.9227 253.671 71.288C254.951 72.6533 255.911 74.3173 256.551 76.28C257.233 78.2 257.575 80.376 257.575 82.808C257.575 83.576 257.297 84.1733 256.743 84.6C256.231 84.984 255.484 85.176 254.503 85.176H233.959V80.568H251.943L250.919 81.528C250.919 79.5653 250.62 77.9227 250.023 76.6C249.468 75.2773 248.636 74.2747 247.527 73.592C246.46 72.8667 245.116 72.504 243.495 72.504C241.703 72.504 240.167 72.9307 238.887 73.784C237.649 74.5947 236.689 75.768 236.007 77.304C235.367 78.7973 235.047 80.5893 235.047 82.68V83.128C235.047 86.6267 235.857 89.2507 237.479 91C239.143 92.7067 241.575 93.56 244.775 93.56C245.884 93.56 247.121 93.432 248.487 93.176C249.895 92.8773 251.217 92.3867 252.455 91.704C253.351 91.192 254.14 90.9787 254.823 91.064C255.505 91.1067 256.039 91.3413 256.423 91.768C256.849 92.1947 257.105 92.728 257.191 93.368C257.276 93.9653 257.148 94.584 256.807 95.224C256.508 95.864 255.975 96.4187 255.207 96.888C253.713 97.8267 251.985 98.5307 250.023 99C248.103 99.4267 246.311 99.64 244.647 99.64ZM268.006 99.512C266.726 99.512 265.745 99.1707 265.062 98.488C264.379 97.7627 264.038 96.7387 264.038 95.416V71.224C264.038 69.9013 264.379 68.8987 265.062 68.216C265.745 67.5333 266.705 67.192 267.942 67.192C269.179 67.192 270.139 67.5333 270.822 68.216C271.505 68.8987 271.846 69.9013 271.846 71.224V75.896L271.142 73.976C271.995 71.8427 273.318 70.1573 275.11 68.92C276.902 67.6827 279.035 67.064 281.51 67.064C284.027 67.064 286.097 67.6613 287.718 68.856C289.339 70.0507 290.47 71.8853 291.11 74.36H290.214C291.067 72.0987 292.475 70.328 294.438 69.048C296.401 67.7253 298.662 67.064 301.222 67.064C303.611 67.064 305.574 67.5333 307.11 68.472C308.689 69.4107 309.862 70.84 310.63 72.76C311.398 74.6373 311.782 77.0267 311.782 79.928V95.416C311.782 96.7387 311.419 97.7627 310.694 98.488C310.011 99.1707 309.03 99.512 307.75 99.512C306.47 99.512 305.489 99.1707 304.806 98.488C304.123 97.7627 303.782 96.7387 303.782 95.416V80.248C303.782 77.8587 303.377 76.1093 302.566 75C301.798 73.8907 300.475 73.336 298.598 73.336C296.507 73.336 294.865 74.0827 293.67 75.576C292.475 77.0267 291.878 79.0533 291.878 81.656V95.416C291.878 96.7387 291.537 97.7627 290.854 98.488C290.171 99.1707 289.19 99.512 287.91 99.512C286.63 99.512 285.627 99.1707 284.902 98.488C284.219 97.7627 283.878 96.7387 283.878 95.416V80.248C283.878 77.8587 283.473 76.1093 282.662 75C281.894 73.8907 280.593 73.336 278.758 73.336C276.667 73.336 275.025 74.0827 273.83 75.576C272.635 77.0267 272.038 79.0533 272.038 81.656V95.416C272.038 98.1467 270.694 99.512 268.006 99.512ZM389.691 99.512C388.411 99.512 387.429 99.1707 386.747 98.488C386.064 97.7627 385.723 96.7387 385.723 95.416V71.224C385.723 69.9013 386.064 68.8987 386.747 68.216C387.429 67.5333 388.389 67.192 389.627 67.192C390.864 67.192 391.824 67.5333 392.507 68.216C393.189 68.8987 393.531 69.9013 393.531 71.224V75.576L392.827 73.976C393.765 71.7147 395.216 70.008 397.179 68.856C399.184 67.6613 401.445 67.064 403.963 67.064C406.48 67.064 408.549 67.5333 410.171 68.472C411.792 69.4107 413.008 70.84 413.819 72.76C414.629 74.6373 415.035 77.0267 415.035 79.928V95.416C415.035 96.7387 414.693 97.7627 414.011 98.488C413.328 99.1707 412.347 99.512 411.067 99.512C409.787 99.512 408.784 99.1707 408.059 98.488C407.376 97.7627 407.035 96.7387 407.035 95.416V80.312C407.035 77.88 406.565 76.1093 405.627 75C404.731 73.8907 403.323 73.336 401.403 73.336C399.056 73.336 397.179 74.0827 395.771 75.576C394.405 77.0267 393.723 78.968 393.723 81.4V95.416C393.723 98.1467 392.379 99.512 389.691 99.512ZM435.192 99.64C432.461 99.64 430.051 98.9787 427.96 97.656C425.912 96.3333 424.312 94.456 423.16 92.024C422.008 89.5493 421.432 86.648 421.432 83.32C421.432 79.9493 422.008 77.0693 423.16 74.68C424.312 72.248 425.912 70.3707 427.96 69.048C430.051 67.7253 432.461 67.064 435.192 67.064C437.795 67.064 440.056 67.704 441.976 68.984C443.939 70.264 445.261 71.9493 445.944 74.04H445.24V57.4C445.24 56.0773 445.581 55.0747 446.264 54.392C446.947 53.7093 447.928 53.368 449.208 53.368C450.488 53.368 451.469 53.7093 452.152 54.392C452.877 55.0747 453.24 56.0773 453.24 57.4V95.416C453.24 96.7387 452.899 97.7627 452.216 98.488C451.533 99.1707 450.552 99.512 449.272 99.512C447.992 99.512 447.011 99.1707 446.328 98.488C445.645 97.7627 445.304 96.7387 445.304 95.416V90.424L446.008 92.344C445.368 94.5627 444.067 96.3333 442.104 97.656C440.141 98.9787 437.837 99.64 435.192 99.64ZM437.432 93.56C439.011 93.56 440.397 93.176 441.592 92.408C442.787 91.64 443.704 90.5093 444.344 89.016C445.027 87.48 445.368 85.5813 445.368 83.32C445.368 79.9067 444.643 77.368 443.192 75.704C441.741 73.9973 439.821 73.144 437.432 73.144C435.853 73.144 434.467 73.528 433.272 74.296C432.077 75.0213 431.139 76.152 430.456 77.688C429.816 79.1813 429.496 81.0587 429.496 83.32C429.496 86.6907 430.221 89.2507 431.672 91C433.123 92.7067 435.043 93.56 437.432 93.56ZM476.959 99.64C473.418 99.64 470.367 98.9787 467.807 97.656C465.247 96.3333 463.263 94.456 461.855 92.024C460.49 89.592 459.807 86.712 459.807 83.384C459.807 80.1413 460.468 77.304 461.791 74.872C463.156 72.44 465.012 70.5413 467.359 69.176C469.748 67.768 472.458 67.064 475.487 67.064C477.706 67.064 479.69 67.4267 481.439 68.152C483.231 68.8773 484.746 69.9227 485.983 71.288C487.263 72.6533 488.223 74.3173 488.863 76.28C489.546 78.2 489.887 80.376 489.887 82.808C489.887 83.576 489.61 84.1733 489.055 84.6C488.543 84.984 487.796 85.176 486.815 85.176H466.271V80.568H484.255L483.231 81.528C483.231 79.5653 482.932 77.9227 482.335 76.6C481.78 75.2773 480.948 74.2747 479.839 73.592C478.772 72.8667 477.428 72.504 475.807 72.504C474.015 72.504 472.479 72.9307 471.199 73.784C469.962 74.5947 469.002 75.768 468.319 77.304C467.679 78.7973 467.359 80.5893 467.359 82.68V83.128C467.359 86.6267 468.17 89.2507 469.791 91C471.455 92.7067 473.887 93.56 477.087 93.56C478.196 93.56 479.434 93.432 480.799 93.176C482.207 92.8773 483.53 92.3867 484.767 91.704C485.663 91.192 486.452 90.9787 487.135 91.064C487.818 91.1067 488.351 91.3413 488.735 91.768C489.162 92.1947 489.418 92.728 489.503 93.368C489.588 93.9653 489.46 94.584 489.119 95.224C488.82 95.864 488.287 96.4187 487.519 96.888C486.026 97.8267 484.298 98.5307 482.335 99C480.415 99.4267 478.623 99.64 476.959 99.64ZM500.319 99.512C498.996 99.512 497.972 99.1707 497.247 98.488C496.564 97.7627 496.223 96.7387 496.223 95.416V71.224C496.223 69.9013 496.564 68.8987 497.247 68.216C497.929 67.5333 498.889 67.192 500.127 67.192C501.364 67.192 502.324 67.5333 503.007 68.216C503.689 68.8987 504.031 69.9013 504.031 71.224V75.256H503.391C503.988 72.696 505.161 70.7547 506.911 69.432C508.66 68.1093 510.985 67.32 513.887 67.064C514.783 66.9787 515.487 67.2133 515.999 67.768C516.553 68.28 516.873 69.0907 516.959 70.2C517.044 71.2667 516.788 72.1413 516.191 72.824C515.636 73.464 514.783 73.848 513.631 73.976L512.223 74.104C509.62 74.36 507.657 75.1707 506.335 76.536C505.012 77.8587 504.351 79.736 504.351 82.168V95.416C504.351 96.7387 504.009 97.7627 503.327 98.488C502.644 99.1707 501.641 99.512 500.319 99.512Z" fill="#173404"/>
<path d="M321.251 99.512C320.227 99.512 319.395 99.2773 318.755 98.808C318.158 98.3387 317.795 97.72 317.667 96.952C317.539 96.1413 317.688 95.2453 318.115 94.264L335.011 56.824C335.566 55.5867 336.227 54.712 336.995 54.2C337.806 53.6453 338.723 53.368 339.747 53.368C340.728 53.368 341.603 53.6453 342.371 54.2C343.182 54.712 343.864 55.5867 344.419 56.824L361.379 94.264C361.848 95.2453 362.019 96.1413 361.891 96.952C361.763 97.7627 361.4 98.4027 360.803 98.872C360.206 99.2987 359.416 99.512 358.435 99.512C357.24 99.512 356.302 99.2347 355.619 98.68C354.979 98.0827 354.403 97.1867 353.891 95.992L349.731 86.328L353.187 88.568H326.179L329.635 86.328L325.539 95.992C324.984 97.2293 324.408 98.1253 323.811 98.68C323.214 99.2347 322.36 99.512 321.251 99.512ZM339.619 62.776L330.659 84.088L328.995 82.04H350.371L348.771 84.088L339.747 62.776H339.619ZM372.524 99.512C371.201 99.512 370.177 99.1493 369.452 98.424C368.769 97.656 368.428 96.6107 368.428 95.288V57.592C368.428 56.2267 368.769 55.1813 369.452 54.456C370.177 53.7307 371.201 53.368 372.524 53.368C373.847 53.368 374.849 53.7307 375.532 54.456C376.257 55.1813 376.62 56.2267 376.62 57.592V95.288C376.62 96.6107 376.279 97.656 375.596 98.424C374.913 99.1493 373.889 99.512 372.524 99.512Z" fill="#2E7D32"/>
</svg>
